<?xml version="1.0" encoding="UTF-8" standalone="no"?>
<!-- Created with Inkscape (http://www.inkscape.org/) -->

<svg
   version="1.1"
   id="svg1"
   width="1000"
   height="1000"
   viewBox="0 0 1000 999.99998"
   xml:space="preserve"
   xmlns:xlink="http://www.w3.org/1999/xlink"
   xmlns="http://www.w3.org/2000/svg"
   xmlns:svg="http://www.w3.org/2000/svg"><defs
     id="defs1"><linearGradient
       id="swatch8"><stop
         style="stop-color:#ffffff;stop-opacity:1;"
         offset="0"
         id="stop8" /></linearGradient><linearGradient
       xlink:href="#swatch8"
       id="linearGradient8"
       x1="263.14573"
       y1="294.88402"
       x2="748.21226"
       y2="294.88402"
       gradientUnits="userSpaceOnUse"
       gradientTransform="matrix(1.2951676,0,0,1.2951676,-154.93904,-15.924206)" /></defs><g
     id="g1"><g
       id="group-R5"><path
         id="path5"
         d="m 915.51672,108.5356 v 285.06367 c 0,117.71237 -21.31544,222.76818 -63.34097,312.23639 -33.90406,72.20387 -81.2236,134.33741 -140.63334,184.70958 -101.26207,85.86384 -202.05813,107.48835 -206.3001,108.36715 l -5.24231,1.0876 -5.26004,-1.0876 C 490.51403,998.03359 389.7181,976.40908 288.43818,890.54524 229.03013,840.17307 181.7266,778.03953 147.80641,705.83566 105.78089,616.36745 84.48328,511.31164 84.48328,393.59927 V 108.5356 l 14.29603,-7.13753 C 107.05628,97.254762 303.80411,2.76e-5 500,2.76e-5 c 196.1959,0 392.94213,97.2547344 401.22069,101.3980424 l 14.29603,7.13753"
         style="fill:#4d9abf;fill-opacity:1;fill-rule:nonzero;stroke:none;stroke-width:0.161849" /><path
         d="M 739.76896,134.07555 H 259.54891 c -40.24573,0 -73.67013,32.74226 -73.67013,73.67013 v 316.50866 c 0,40.24571 32.74226,73.67013 73.67013,73.67013 h 480.90217 c 40.24571,0 73.67013,-32.74226 73.67013,-73.67013 V 207.74568 c 0,-40.24572 -32.74229,-73.67013 -73.67013,-73.67013 z m -480.22005,34.10654 h 480.90217 c 14.32475,0 26.6031,7.50344 33.42443,19.09966 L 528.30842,365.31788 c -15.68902,11.59622 -36.83507,11.59622 -51.84195,0 L 226.12448,186.59961 c 6.82131,-10.91408 19.09968,-19.09965 33.42443,-19.09965 z m -39.56359,55.93473 168.48631,120.055 -168.48631,168.4863 z M 739.76896,563.13579 H 259.54891 c -11.59624,0 -21.82819,-4.77491 -28.64951,-12.96048 l 186.22169,-186.22169 40.24573,28.64948 c 13.64261,9.54985 30.01374,15.00689 45.70275,15.00689 15.68902,0 32.74228,-4.77492 46.3849,-15.00689 l 36.15292,-26.60309 184.17531,184.1753 c -7.50342,7.50344 -17.7354,12.96048 -28.64949,12.96048 z M 779.33254,512.65812 612.2105,345.53609 779.33254,224.11682 Z"
         id="path1"
         style="fill:url(#linearGradient8);stroke-width:6.82166;stroke-dasharray:none" /></g></g></svg>
